PathFileType  4	(X/Y/Z) C:\Users\antoi\Documents\MyRepositories\mobilecap\ResultsAnalysis
DataRate	CameraRate	NumFrames	NumMarkers	Units	OrigDataRate	OrigDataStartFrame	OrigNumFrames
100.0	100.0	4	51	mm	100.0	1	1747
Frame#	Time	r_knee			r_shank_antsup			r_ankle			r_calc			r_5meta			r_toe			L_knee			L_shank_antsup			L_ankle			L_calc			L_5meta			L_toe			r_sh2			r_sh3			r_sh4			L_sh2			L_sh3			r_thigh1			r_thigh2			r_thigh3			r_thigh4			r_thigh5			L_thigh1			L_thigh2			L_thigh3			L_thigh4			r.ASIS			r.PSIS			L.ASIS			L.PSIS			C7			R_Shoulder			L_Shoulder			R_Sternum			L_Sternum			R_humerus			R_elbow_med			R_elbow_lat			R_forearm			R_wrist_radius			R_wrist_ulna			L_humerus			L_elbow_med			L_elbow_lat			L_forearm			L_wrist_radius			L_wrist_ulna			R_HJC			L_HJC			R_HJC_reg			L_HJC_reg			
		X1	Y1	Z1	X2	Y2	Z2	X3	Y3	Z3	X4	Y4	Z4	X5	Y5	Z5	X6	Y6	Z6	X7	Y7	Z7	X8	Y8	Z8	X9	Y9	Z9	X10	Y10	Z10	X11	Y11	Z11	X12	Y12	Z12	X13	Y13	Z13	X14	Y14	Z14	X15	Y15	Z15	X16	Y16	Z16	X17	Y17	Z17	X18	Y18	Z18	X19	Y19	Z19	X20	Y20	Z20	X21	Y21	Z21	X22	Y22	Z22	X23	Y23	Z23	X24	Y24	Z24	X25	Y25	Z25	X26	Y26	Z26	X27	Y27	Z27	X28	Y28	Z28	X29	Y29	Z29	X30	Y30	Z30	X31	Y31	Z31	X32	Y32	Z32	X33	Y33	Z33	X34	Y34	Z34	X35	Y35	Z35	X36	Y36	Z36	X37	Y37	Z37	X38	Y38	Z38	X39	Y39	Z39	X40	Y40	Z40	X41	Y41	Z41	X42	Y42	Z42	X43	Y43	Z43	X44	Y44	Z44	X45	Y45	Z45	X46	Y46	Z46	X47	Y47	Z47	X48	Y48	Z48	X49	Y49	Z49	X50	Y50	Z50	X51	Y51	Z51	

1	0.00000000	-200.88788	526.75570	-376.87090	-141.78229	411.75598	-385.90853	-290.28650	105.09448	-390.28606	-361.12445	71.82270	-435.05953	-162.57504	40.24319	-345.86375	-123.87380	62.66807	-418.13269	-182.85256	517.60130	-885.99877	-118.97909	420.61289	-870.82827	-265.69934	102.48767	-910.84773	-339.18872	69.88214	-872.29522	-125.02618	35.62421	-907.11511	-108.08836	59.12987	-833.45134	-163.13203	299.33836	-408.81826	-206.63506	412.23037	-342.41217	-217.61548	296.15335	-344.52567	-195.44914	438.37770	-918.39420	-194.65196	318.60409	-939.12055	-421.61063	623.41213	-466.77750	-311.75762	628.92574	-449.11519	-297.00867	609.07857	-386.54230	-432.40511	555.34093	-377.08530	-312.87812	559.37241	-364.97658	-427.05236	603.66518	-839.38217	-289.63938	613.87414	-851.54969	-424.66137	509.39162	-901.29454	-286.69643	518.58924	-909.78495	-544.40408	602.39986	-516.60576	-760.61520	571.26593	-603.98467	-548.74831	595.32935	-785.24090	-756.16936	570.42503	-699.54212	-652.46475	1087.81227	-651.49763	-580.80524	1010.90502	-462.75509	-566.00193	1032.19697	-822.56402	-519.63270	1001.60836	-625.09249	-519.92254	997.90285	-667.95767	-571.51273	842.06812	-388.87112	-660.28468	625.43837	-420.87222	-618.17199	650.62577	-340.24066	-499.46158	727.38680	-429.61600	-416.08139	771.72620	-498.07937	-394.03342	733.89650	-497.86460	-547.45792	864.16539	-908.64643	-636.64991	644.36395	-920.93742	-568.81854	677.57091	-971.89359	-507.88179	752.10973	-839.43197	-431.49605	784.92068	-756.00466	-404.22850	747.84304	-764.51106	-603.95338	500.53066	-552.14709	-598.81441	486.36020	-765.00595	-599.07902	500.66009	-556.40241	-590.83542	499.10086	-733.58766	
2	0.01000000	-200.95540	526.80727	-377.21965	-141.89217	411.86084	-386.26632	-290.28231	105.18501	-390.31998	-361.14353	71.82073	-435.11020	-162.56743	40.21702	-345.87859	-123.90410	62.66827	-418.10802	-182.89642	517.62088	-885.97650	-119.05856	420.58513	-870.73592	-265.69644	102.43752	-910.93235	-338.94401	69.72301	-872.49088	-125.04650	35.58962	-907.14416	-108.10307	59.10515	-833.46807	-163.18276	299.38753	-409.10638	-206.74380	412.37246	-342.79628	-218.20668	296.50061	-344.21577	-195.51387	438.37030	-918.37258	-194.67249	318.61564	-939.11037	-421.68621	623.65687	-466.84119	-311.93460	628.90913	-449.46591	-297.08465	609.09260	-386.76638	-432.31363	555.51500	-377.22263	-312.92694	559.33682	-365.41053	-427.17367	603.67988	-839.18506	-289.72824	613.92066	-851.50586	-424.69365	509.31399	-901.01400	-286.72398	518.63737	-909.78132	-544.64547	602.95120	-516.38702	-761.11056	570.75200	-604.21558	-548.60152	595.50259	-785.01967	-756.22124	569.85469	-699.36527	-655.67151	1087.69783	-651.31996	-583.63060	1010.95683	-462.93549	-568.92976	1032.55396	-822.40695	-522.35881	1002.11786	-625.06210	-522.64171	998.39200	-668.06163	-573.21888	842.18365	-388.89377	-660.87347	624.91972	-420.83558	-618.86825	650.66562	-340.22118	-500.62229	728.30651	-429.43897	-417.37032	772.76634	-498.24230	-395.05769	735.19062	-497.84891	-549.66241	864.68195	-908.56394	-637.56949	644.38033	-921.07590	-570.07521	677.98481	-971.69493	-509.43305	752.83351	-839.53336	-432.99654	785.98808	-756.22349	-405.51662	749.17174	-764.94242	-603.92366	500.76842	-551.86500	-598.40408	486.33848	-764.69814	-599.25895	500.87504	-556.35276	-590.15961	499.19959	-733.49737	
3	0.02000000	-201.06067	526.84147	-377.55172	-141.98802	411.94067	-386.58672	-290.27525	105.23084	-390.44855	-361.11969	71.82145	-435.10974	-162.55913	40.26560	-345.88289	-123.87336	62.68012	-418.14360	-182.96599	517.63766	-885.96051	-119.14355	420.54833	-870.65254	-265.69931	102.38963	-911.00763	-338.71354	69.55662	-872.75814	-125.03724	35.53321	-907.16885	-108.11860	59.07428	-833.48030	-163.28167	299.39921	-409.38738	-206.76198	412.49172	-343.08410	-218.37052	296.69542	-344.24859	-195.57428	438.36633	-918.32432	-194.68924	318.61023	-939.11624	-421.83903	623.74180	-466.93060	-312.13102	628.89709	-449.68388	-297.16156	609.13609	-387.02612	-432.33101	555.53759	-377.29943	-312.94073	559.39141	-365.71450	-427.33494	603.64090	-838.96231	-289.81351	613.93740	-851.41147	-424.77537	509.31848	-900.94430	-286.77812	518.66497	-909.76481	-544.86962	603.14782	-516.34774	-761.59356	570.16296	-604.23505	-548.85832	595.41487	-784.97190	-756.65857	569.18997	-699.47056	-658.96422	1087.52539	-651.09791	-586.49689	1011.02290	-462.81661	-572.00223	1032.90059	-822.28261	-525.20885	1002.64693	-625.01389	-525.46974	998.92215	-667.97030	-575.06969	842.33469	-388.82113	-661.27577	624.31984	-421.08183	-619.55777	650.67042	-340.21960	-501.89620	729.13617	-429.35904	-418.67264	773.98967	-498.27301	-396.16310	736.57896	-497.69358	-551.89683	865.24497	-908.59136	-638.59632	644.38598	-921.26000	-571.22639	678.40821	-971.76603	-511.00117	753.48642	-839.51664	-434.49486	787.08736	-756.38264	-406.88120	750.43675	-765.37127	-604.04842	500.72270	-551.78206	-598.42837	486.10769	-764.60020	-599.31682	500.84947	-556.24384	-590.13932	499.03675	-733.38264	
4	0.03000000	-201.20377	526.84307	-377.89217	-142.08973	411.98434	-386.81251	-290.29656	105.21395	-390.56723	-361.10346	71.79288	-435.09082	-162.57398	40.30223	-345.87680	-123.84504	62.65114	-418.17750	-183.08459	517.64825	-885.92123	-119.24945	420.51994	-870.51592	-265.70463	102.33843	-911.04873	-338.72701	69.50859	-872.85673	-125.00982	35.47066	-907.19248	-108.13313	59.04896	-833.48760	-163.40675	299.39554	-409.61922	-206.77712	412.58726	-343.26484	-218.34217	296.77727	-344.50994	-195.62546	438.37387	-918.27031	-194.70158	318.62012	-939.09809	-422.02892	623.72324	-467.02173	-312.29326	628.89191	-449.88778	-297.28393	609.16923	-387.30735	-432.45306	555.44580	-377.34725	-313.01525	559.41485	-365.95853	-427.49538	603.60744	-838.83729	-289.93619	613.91547	-851.25708	-424.90932	509.37811	-900.97942	-286.86711	518.68030	-909.73213	-545.10858	603.11564	-516.31088	-762.11467	569.47193	-604.16435	-549.09857	594.15770	-784.88902	-757.65060	567.97594	-700.19816	-662.38624	1087.32723	-650.92944	-589.47897	1011.13300	-462.55405	-575.21225	1033.25430	-822.20687	-528.17919	1003.19720	-624.89401	-528.44849	999.47463	-667.82592	-577.09247	842.47118	-388.72946	-661.81863	623.95520	-421.27434	-620.27652	650.56667	-340.33308	-503.24431	730.21289	-429.02093	-420.01402	775.34197	-498.20696	-397.29298	738.05265	-497.33931	-554.14964	865.84320	-908.64647	-639.72775	644.46475	-921.52887	-572.44228	678.91806	-972.00092	-512.63008	754.19742	-839.55659	-436.02150	788.20643	-756.48742	-408.28360	751.69875	-765.79613	-604.56163	500.41522	-551.50281	-598.71639	484.86885	-764.24254	-599.10250	500.64964	-555.39805	-590.85698	497.90384	-732.56055	
